<?xml version="1.0" encoding="UTF-8"?><svg id="Layer_1" xmlns="http://www.w3.org/2000/svg" xmlns:xlink="http://www.w3.org/1999/xlink" viewBox="0 0 170.21 146.64"><defs><style>.cls-1{stroke:#000008;stroke-miterlimit:4;stroke-width:.43px;}.cls-1,.cls-2{fill:#fff;}.cls-3{clip-path:url(#clippath);}.cls-4{fill:#000008;}.cls-5{fill:#97b4d7;}.cls-6{fill:none;stroke:#97b4d7;stroke-linecap:round;stroke-width:3.83px;}</style><clipPath id="clippath"><rect class="cls-4" x=".21" y="107.26" width="169.78" height="39.15"/></clipPath></defs><rect class="cls-1" x=".21" y=".21" width="169.78" height="146.21"/><g><rect class="cls-4" x=".21" y="107.26" width="169.78" height="39.15"/><g class="cls-3"><path class="cls-4" d="M.22,107.28H169.99v39.14H.22v-39.14Z"/></g></g><g transform="translate(45.363858, 301.181524)"><path class="cls-5" d="M13.99,130.23l-2.27-5.89c-.07-.18-.14-.38-.21-.61-.08-.23-.15-.48-.21-.74-.14,.55-.29,1.01-.43,1.37l-2.27,5.88h5.4Zm4.08,5.37h-1.51c-.18,0-.32-.04-.43-.13-.11-.09-.19-.2-.24-.33l-1.35-3.49h-6.5l-1.35,3.49c-.04,.12-.12,.23-.24,.32-.11,.1-.25,.14-.42,.14h-1.52l5.78-14.47h1.99l5.78,14.47Z"/></g><g transform="translate(69.458076, 301.181524)"><path class="cls-5" d="M28.19,133.95v1.65h-8.21v-14.47h1.95v12.82h6.26Z"/></g><g transform="translate(87.733385, 301.181524)"><path class="cls-5" d="M40.13,122.77h-4.68v12.83h-1.95v-12.83h-4.7v-1.64h11.33v1.64Z"/></g><g transform="translate(108.749096, 301.181524)"><path class="cls-5" d="M44.23,135.6h-1.96v-14.47h1.96v14.47Z"/></g><g transform="translate(118.71421, 301.181524)"><path class="cls-5" d="M53.51,134.05c.6,0,1.14-.1,1.6-.3,.47-.21,.87-.49,1.2-.85,.33-.37,.58-.8,.75-1.3,.17-.51,.26-1.06,.26-1.67v-8.79h1.95v8.79c0,.83-.13,1.61-.4,2.32-.27,.72-.65,1.33-1.14,1.85-.5,.52-1.1,.93-1.82,1.22-.71,.29-1.51,.44-2.4,.44s-1.69-.15-2.4-.44c-.72-.29-1.32-.7-1.82-1.22-.5-.52-.88-1.14-1.14-1.85-.27-.71-.4-1.49-.4-2.32v-8.79h1.95v8.79c0,.6,.08,1.16,.26,1.67,.17,.5,.42,.94,.74,1.3,.32,.36,.72,.64,1.2,.85,.48,.21,1.02,.31,1.61,.31Z"/></g><g transform="translate(144.890429, 301.181524)"><path class="cls-5" d="M77.84,121.13v14.47h-1.72v-10.63c0-.14,0-.29,0-.45,.01-.16,.03-.33,.04-.5l-4.97,9.04c-.16,.3-.39,.45-.7,.45h-.28c-.32,0-.56-.15-.71-.45l-5.07-9.09c.04,.35,.06,.69,.06,.99v10.63h-1.72v-14.47h1.45c.18,0,.31,.02,.41,.05,.09,.03,.19,.12,.27,.27l4.99,8.91c.08,.16,.16,.33,.24,.51,.08,.18,.15,.35,.22,.53,.06-.18,.13-.35,.2-.53,.08-.18,.16-.35,.25-.51l4.91-8.9c.08-.15,.16-.24,.26-.27,.1-.04,.24-.05,.42-.05h1.45Z"/></g><g transform="translate(187.043536, 301.181524)"><path class="cls-2" d="M96.85,132.61c.11,0,.21,.04,.28,.13l.78,.83c-.59,.69-1.31,1.22-2.15,1.6-.85,.39-1.87,.58-3.07,.58-1.04,0-1.98-.18-2.83-.54-.85-.36-1.57-.86-2.17-1.51-.6-.65-1.06-1.43-1.39-2.34-.33-.91-.5-1.91-.5-3.01s.17-2.09,.51-3c.34-.91,.82-1.69,1.45-2.34,.63-.66,1.37-1.16,2.24-1.52,.87-.36,1.83-.54,2.88-.54s1.93,.17,2.72,.5c.78,.33,1.48,.77,2.08,1.34l-.65,.9c-.04,.07-.1,.13-.16,.17-.07,.04-.15,.06-.26,.06-.12,0-.27-.06-.44-.2-.18-.13-.41-.27-.69-.43-.28-.16-.63-.31-1.05-.44-.43-.13-.95-.2-1.56-.2-.75,0-1.44,.13-2.06,.39-.62,.26-1.15,.64-1.6,1.13-.45,.49-.8,1.09-1.05,1.8-.25,.7-.37,1.5-.37,2.38s.13,1.71,.38,2.42c.26,.7,.61,1.3,1.06,1.79,.45,.49,.98,.86,1.59,1.12,.61,.25,1.27,.38,1.98,.38,.43,0,.82-.02,1.16-.07,.35-.05,.67-.13,.96-.24,.29-.11,.57-.25,.82-.41,.25-.16,.51-.36,.76-.59,.11-.1,.22-.15,.34-.15Z"/></g><g transform="translate(210.817457, 301.181524)"><path class="cls-2" d="M107.87,130.23l-2.27-5.89c-.07-.18-.14-.38-.21-.61-.08-.23-.15-.48-.21-.74-.14,.55-.29,1.01-.43,1.37l-2.27,5.88h5.4Zm4.08,5.37h-1.51c-.18,0-.32-.04-.43-.13-.11-.09-.19-.2-.24-.33l-1.35-3.49h-6.5l-1.35,3.49c-.04,.12-.12,.23-.24,.32-.11,.1-.25,.14-.42,.14h-1.52l5.78-14.47h1.99l5.78,14.47Z"/></g><g transform="translate(234.911675, 301.181524)"><path class="cls-2" d="M118.12,128.63c.56,0,1.05-.07,1.48-.22,.43-.15,.78-.35,1.08-.62,.29-.27,.52-.58,.66-.95,.15-.37,.22-.78,.22-1.22,0-.93-.29-1.65-.86-2.16-.57-.52-1.43-.78-2.59-.78h-2.32v5.96h2.32Zm0-7.5c.92,0,1.71,.11,2.38,.32,.68,.21,1.24,.51,1.68,.9s.77,.86,.99,1.41c.22,.55,.33,1.17,.33,1.85s-.12,1.28-.35,1.84c-.23,.56-.57,1.04-1.03,1.45-.46,.4-1.02,.72-1.69,.94-.67,.23-1.44,.34-2.31,.34h-2.32v5.42h-1.95v-14.47h4.27Z"/></g><g transform="translate(256.283285, 301.181524)"><path class="cls-2" d="M127.94,135.6h-1.96v-14.47h1.96v14.47Z"/></g><g transform="translate(266.248399, 301.181524)"><path class="cls-2" d="M141.42,122.77h-4.68v12.83h-1.95v-12.83h-4.7v-1.64h11.33v1.64Z"/></g><g transform="translate(287.264111, 301.181524)"><path class="cls-2" d="M151.24,130.23l-2.27-5.89c-.07-.18-.14-.38-.21-.61-.08-.23-.15-.48-.21-.74-.14,.55-.29,1.01-.43,1.37l-2.27,5.88h5.4Zm4.08,5.37h-1.51c-.18,0-.32-.04-.43-.13-.11-.09-.19-.2-.24-.33l-1.35-3.49h-6.5l-1.35,3.49c-.04,.12-.12,.23-.24,.32-.11,.1-.25,.14-.42,.14h-1.52l5.78-14.47h1.99l5.78,14.47Z"/></g><g transform="translate(311.358328, 301.181524)"><path class="cls-2" d="M165.44,133.95v1.65h-8.21v-14.47h1.95v12.82h6.26Z"/></g><path class="cls-6" d="M77.17,67.6h15.71"/><path class="cls-6" d="M93.16,68.06l7.09,28.94"/><path class="cls-6" d="M67.8,96.77L91.87,12.03"/><path class="cls-6" d="M119.83,97h-19.18"/><path class="cls-6" d="M120.1,96.31L92.71,12.13"/><path class="cls-6" d="M49.45,96.45L74.11,11"/><path class="cls-6" d="M67.48,96.93h-17.48"/></svg>